<?xml version="1.0" encoding="utf-8"?>
<!-- Generator: Adobe Illustrator 21.0.0, SVG Export Plug-In . SVG Version: 6.00 Build 0)  -->
<svg version="1.1" id="Слой_1" xmlns="http://www.w3.org/2000/svg" xmlns:xlink="http://www.w3.org/1999/xlink" x="0px" y="0px"
	 viewBox="0 0 491.6 422.3" style="enable-background:new 0 0 491.6 422.3;" xml:space="preserve">
<g>
	<polygon points="216,285.7 216.4,283.3 212.2,283.3 212.6,285.7 	"/>
	<polygon points="221.4,254.5 207.2,254.5 207.6,256.9 221,256.9 	"/>
	<polygon points="218.1,273.7 210.5,273.7 210.9,276.1 217.7,276.1 	"/>
	<polygon points="219.7,264.1 208.9,264.1 209.3,266.5 219.3,266.5 	"/>
	<rect x="211.2" y="379.1" transform="matrix(0.8654 -0.501 0.501 0.8654 -159.0257 168.4417)" width="45.6" height="2.4"/>
	<polygon points="313.4,390.6 314.7,392.7 354.2,369.9 353,367.8 	"/>
	<path d="M410,281.9l-46.1,33.9l-48.6-28l4.5-58.9l44.7-25.8l-1.2-2.1l-49.9,28.8l0,0l-6.6,3.8l5.9,54.1l-47,27.1l6-35.1h-15.2
		l6,35.1l-47.7-27.5l0,0l-0.6-0.3l-0.6,0.3l0,0l-48.2,27.8l0,0l-2.3,1.3v0.7v2v53.6v2v0.7l2.3,1.3l0,0l48.2,27.8l0,0l0.6,0.3
		l0.6-0.3l0,0l49.3-28.5l49.3,28.5l0,0l0.6,0.3l0.6-0.3l0,0l48.2-27.8l0,0l1.6-0.9l0.2-0.1l0,0l0.6-0.3v-0.7v-2V318l52.5-23
		L410,281.9z M314.1,288.4L314.1,288.4L314.1,288.4L314.1,288.4z M165.6,319.2v-1.3l47.6-27.5l0,0l1.1-0.7l1.1,0.7l0,0l47.6,27.5
		v56.2l-47.6,27.5l0,0l-1.1,0.7l-1.1-0.7l0,0l-47.6-27.5v-1.3V319.2z M362.7,374.1l-47.6,27.5l0,0l-1.1,0.7l-1.1-0.7l0,0l-47.6-27.5
		v-56.2l48.7-28.1l48.7,28.1v54.9V374.1z"/>
	<polygon points="122.1,288.4 115.8,231.5 163.3,204 163.3,204.1 164.4,203.4 165.5,204.1 165.5,204.1 195.8,221.5 197,219.5 
		170.8,204.3 170.8,165.4 168.4,165.4 168.4,202.9 165,201 165,201 164.4,200.6 163.6,201.1 160.4,202.9 160.4,165.4 158,165.4 
		158,204.3 114.5,229.4 65.4,201.1 64.7,200.6 62.3,202 62.3,202 14.2,229.8 15.4,231.9 64.6,203.4 65.8,204.1 65.8,204 
		113.3,231.5 106.9,288.4 	"/>
	<polygon points="357.8,188.8 370.1,188.8 369.8,186.4 358.1,186.4 	"/>
	<polygon points="361,160 366.9,160 366.6,157.6 361.3,157.6 	"/>
	<polygon points="358.9,179.2 369,179.2 368.7,176.8 359.1,176.8 	"/>
	<polygon points="359.9,169.6 367.9,169.6 367.7,167.2 360.2,167.2 	"/>
	<polygon points="362.3,148 362.1,150.4 365.8,150.4 365.5,148 	"/>
	<polygon points="356.7,198.4 371.1,198.4 370.9,196 357,196 	"/>
	<polygon points="415,61.9 415,60.1 415,58.1 415,57.4 414.4,57 414.4,57 413.9,56.7 412.7,56 412.7,56 411,55.1 444,36 442.8,33.9 
		408.6,53.7 366.3,29.2 366.3,29.2 364.6,28.2 364.5,28.2 364.5,28.2 363.9,27.8 363.3,28.2 314.1,56.6 285.7,32.9 278.1,46.1 
		312.9,58.8 312.9,113.6 312.9,115.6 312.9,116.3 313.4,116.7 313.4,116.7 313.8,116.9 315.2,117.7 315.2,117.7 363.3,145.5 
		363.3,145.5 363.9,145.8 364.5,145.5 364.5,145.5 396.7,126.9 395.5,124.8 365.1,142.4 365.1,142.4 363.9,143 362.8,142.4 
		362.8,142.4 315.2,114.9 315.2,113.6 315.2,58.7 362.8,31.3 362.8,31.3 363.9,30.6 412.6,58.8 412.6,60.1 412.6,94.2 415,94.2 
		415,64.7 449.2,45 448,42.9 	"/>
	<polygon points="149.4,380.1 152.4,385.2 154.3,383.7 151.7,379.1 	"/>
	<polygon points="158.3,376.2 160.1,379.5 162.1,378 160.5,375.3 	"/>
	<polygon points="140.6,384 144.6,390.9 146.5,389.5 142.8,383 	"/>
	<polygon points="131.7,387.9 136.8,396.6 138.7,395.2 133.9,386.9 	"/>
	<polygon points="122.9,391.7 129,402.3 131,400.9 125.1,390.8 	"/>
	<polygon points="114,395.6 121.2,408.1 123.2,406.7 116.3,394.6 	"/>
	<path d="M207.3,243.5c3.2,1.8,7.1,1.8,7.1,1.8c3.9,0,7-1.8,7-1.8c3.1-1.8,4.9-5.2,4.9-5.2c1.8-3.4,1.8-7.8,1.8-7.8
		c0-4.4-1.8-7.8-1.8-7.8c-1.8-3.4-4.9-5.2-4.9-5.2c-3.1-1.8-7-1.8-7-1.8c-3.9,0-7,1.8-7,1.8c-3.2,1.8-4.9,5.2-4.9,5.2
		c-1.8,3.4-1.8,7.8-1.8,7.8c0,4.4,1.8,7.7,1.8,7.7C204.1,241.7,207.3,243.5,207.3,243.5z M205.7,224.5c1.2-2.6,3.5-4,3.5-4
		c2.2-1.4,5.1-1.4,5.1-1.4c2.9,0,5.1,1.4,5.1,1.4c2.2,1.4,3.5,4,3.5,4c1.2,2.6,1.2,6.2,1.2,6.2c0,3.6-1.2,6.2-1.2,6.2
		c-1.2,2.6-3.5,4-3.5,4c-2.2,1.4-5,1.4-5,1.4c-2.8,0-5.1-1.4-5.1-1.4c-2.2-1.4-3.4-4-3.4-4c-1.2-2.6-1.2-6.1-1.2-6.1
		C204.5,227.1,205.7,224.5,205.7,224.5z"/>
	<polygon points="275,273.5 275,244.8 271.2,244.8 271.2,256.6 257.1,256.6 257.1,244.8 253.3,244.8 253.3,273.5 257.1,273.5 
		257.1,260 271.2,260 271.2,273.5 	"/>
	<path d="M157.4,157.1c3.1,1.8,7.1,1.8,7.1,1.8c3.9,0,7-1.8,7-1.8c3.1-1.8,4.9-5.2,4.9-5.2c1.8-3.4,1.8-7.8,1.8-7.8
		c0-4.4-1.8-7.8-1.8-7.8c-1.8-3.4-4.9-5.2-4.9-5.2c-3.1-1.8-7-1.8-7-1.8c-3.9,0-7,1.8-7,1.8c-3.2,1.8-4.9,5.2-4.9,5.2
		c-1.8,3.4-1.8,7.8-1.8,7.8c0,4.4,1.8,7.7,1.8,7.7C154.3,155.3,157.4,157.1,157.4,157.1z M155.9,138.1c1.2-2.6,3.4-4,3.4-4
		c2.2-1.4,5.1-1.4,5.1-1.4c2.9,0,5.1,1.4,5.1,1.4c2.2,1.4,3.5,4,3.5,4c1.2,2.6,1.2,6.2,1.2,6.2c0,3.6-1.2,6.2-1.2,6.2
		c-1.2,2.6-3.5,4-3.5,4c-2.2,1.4-5,1.4-5,1.4c-2.8,0-5.1-1.4-5.1-1.4c-2.2-1.4-3.4-4-3.4-4c-1.2-2.6-1.2-6.1-1.2-6.1
		C154.7,140.7,155.9,138.1,155.9,138.1z"/>
	<path d="M420.9,102.4c-3.1-1.8-7-1.8-7-1.8c-3.9,0-7,1.8-7,1.8c-3.1,1.8-4.9,5.2-4.9,5.2c-1.8,3.4-1.8,7.8-1.8,7.8
		c0,4.4,1.8,7.7,1.8,7.7c1.8,3.4,4.9,5.2,4.9,5.2c3.1,1.9,7,1.9,7,1.9c3.9,0,7-1.8,7-1.8c3.1-1.8,4.9-5.2,4.9-5.2
		c1.8-3.4,1.8-7.8,1.8-7.8c0-4.4-1.8-7.8-1.8-7.8C424,104.2,420.9,102.4,420.9,102.4z M422.3,121.6c-1.2,2.6-3.4,4-3.4,4
		c-2.2,1.4-5.1,1.4-5.1,1.4c-2.8,0-5-1.4-5-1.4c-2.2-1.4-3.5-4-3.5-4c-1.2-2.6-1.2-6.1-1.2-6.1c0-3.6,1.2-6.2,1.2-6.2
		c1.2-2.6,3.4-4,3.4-4c2.2-1.4,5.1-1.4,5.1-1.4c2.9,0,5.1,1.4,5.1,1.4c2.2,1.4,3.4,4,3.4,4c1.2,2.6,1.2,6.2,1.2,6.2
		C423.6,119,422.3,121.6,422.3,121.6z"/>
	<path d="M257.2,41.9c3.1,1.9,7,1.9,7,1.9c3.9,0,7-1.8,7-1.8c3.1-1.8,4.9-5.2,4.9-5.2c1.8-3.4,1.8-7.8,1.8-7.8
		c0-4.4-1.8-7.8-1.8-7.8c-1.8-3.4-4.9-5.2-4.9-5.2c-3.1-1.8-7-1.8-7-1.8c-3.9,0-7,1.8-7,1.8c-3.2,1.8-4.9,5.2-4.9,5.2
		c-1.8,3.4-1.8,7.8-1.8,7.8c0,4.4,1.8,7.7,1.8,7.7C254,40.1,257.2,41.9,257.2,41.9z M255.6,22.9c1.2-2.6,3.5-4,3.5-4
		c2.2-1.4,5.1-1.4,5.1-1.4c2.9,0,5.1,1.4,5.1,1.4c2.2,1.4,3.5,4,3.5,4c1.2,2.6,1.2,6.2,1.2,6.2c0,3.6-1.2,6.2-1.2,6.2
		c-1.2,2.6-3.4,4-3.4,4c-2.2,1.4-5.1,1.4-5.1,1.4c-2.8,0-5-1.4-5-1.4c-2.2-1.4-3.5-4-3.5-4c-1.2-2.6-1.2-6.1-1.2-6.1
		C254.4,25.5,255.6,22.9,255.6,22.9z"/>
	<polygon points="228.6,29.8 242.7,29.8 242.7,43.3 246.5,43.3 246.5,14.7 242.7,14.7 242.7,26.4 228.6,26.4 228.6,14.7 224.8,14.7 
		224.8,43.3 228.6,43.3 	"/>
	<path d="M475.6,21.2c-1.8-3.4-4.9-5.2-4.9-5.2c-3.1-1.8-7-1.8-7-1.8c-3.9,0-7,1.8-7,1.8c-3.1,1.8-4.9,5.2-4.9,5.2
		C450,24.6,450,29,450,29c0,4.4,1.8,7.7,1.8,7.7c1.8,3.4,4.9,5.2,4.9,5.2c3.1,1.9,7,1.9,7,1.9c3.9,0,7-1.8,7-1.8
		c3.1-1.8,4.9-5.2,4.9-5.2c1.8-3.4,1.8-7.8,1.8-7.8C477.4,24.5,475.6,21.2,475.6,21.2z M472.3,35.2c-1.3,2.6-3.5,4-3.5,4
		c-2.2,1.4-5.1,1.4-5.1,1.4c-2.8,0-5-1.4-5-1.4c-2.2-1.4-3.5-4-3.5-4c-1.2-2.6-1.2-6.1-1.2-6.1c0-3.6,1.2-6.2,1.2-6.2
		c1.2-2.6,3.4-4,3.4-4c2.2-1.4,5.1-1.4,5.1-1.4c2.9,0,5.1,1.4,5.1,1.4c2.2,1.4,3.4,4,3.4,4c1.2,2.6,1.2,6.2,1.2,6.2
		C473.5,32.6,472.3,35.2,472.3,35.2z"/>
</g>
</svg>
